<mxfile host="app.diagrams.net" modified="2021-08-12T01:54:26.462Z" agent="5.0 (X11; Linux x86_64) AppleWebKit/537.36 (KHTML, like Gecko) Chrome/91.0.4472.114 Safari/537.36" etag="7CGuQFgcBsv3X2Nk0PsR" version="14.9.6" type="github">
  <diagram id="C5RBs43oDa-KdzZeNtuy" name="Page-1">
    <mxGraphModel dx="795" dy="421" grid="1" gridSize="10" guides="1" tooltips="1" connect="1" arrows="1" fold="1" page="1" pageScale="1" pageWidth="827" pageHeight="1169" math="0" shadow="0">
      <root>
        <mxCell id="WIyWlLk6GJQsqaUBKTNV-0" />
        <mxCell id="WIyWlLk6GJQsqaUBKTNV-1" parent="WIyWlLk6GJQsqaUBKTNV-0" />
        <mxCell id="MQsE-abeUmZ2WkoHEOEZ-16" value="" style="whiteSpace=wrap;html=1;aspect=fixed;" vertex="1" parent="WIyWlLk6GJQsqaUBKTNV-1">
          <mxGeometry x="100" y="70" width="290" height="290" as="geometry" />
        </mxCell>
        <mxCell id="MQsE-abeUmZ2WkoHEOEZ-0" value="Register/Login" style="ellipse;whiteSpace=wrap;html=1;" vertex="1" parent="WIyWlLk6GJQsqaUBKTNV-1">
          <mxGeometry x="130" y="100" width="140" height="70" as="geometry" />
        </mxCell>
        <mxCell id="MQsE-abeUmZ2WkoHEOEZ-7" style="edgeStyle=orthogonalEdgeStyle;rounded=0;orthogonalLoop=1;jettySize=auto;html=1;entryX=0;entryY=0.5;entryDx=0;entryDy=0;" edge="1" parent="WIyWlLk6GJQsqaUBKTNV-1" source="MQsE-abeUmZ2WkoHEOEZ-1" target="MQsE-abeUmZ2WkoHEOEZ-0">
          <mxGeometry relative="1" as="geometry" />
        </mxCell>
        <mxCell id="MQsE-abeUmZ2WkoHEOEZ-1" value="Anonymous&lt;br&gt;" style="shape=umlActor;verticalLabelPosition=bottom;verticalAlign=top;html=1;" vertex="1" parent="WIyWlLk6GJQsqaUBKTNV-1">
          <mxGeometry x="50" y="105" width="30" height="60" as="geometry" />
        </mxCell>
        <mxCell id="MQsE-abeUmZ2WkoHEOEZ-12" style="edgeStyle=orthogonalEdgeStyle;rounded=0;orthogonalLoop=1;jettySize=auto;html=1;entryX=1;entryY=0.5;entryDx=0;entryDy=0;" edge="1" parent="WIyWlLk6GJQsqaUBKTNV-1" source="MQsE-abeUmZ2WkoHEOEZ-2" target="MQsE-abeUmZ2WkoHEOEZ-8">
          <mxGeometry relative="1" as="geometry" />
        </mxCell>
        <mxCell id="MQsE-abeUmZ2WkoHEOEZ-13" style="edgeStyle=orthogonalEdgeStyle;rounded=0;orthogonalLoop=1;jettySize=auto;html=1;entryX=1;entryY=0.5;entryDx=0;entryDy=0;" edge="1" parent="WIyWlLk6GJQsqaUBKTNV-1" source="MQsE-abeUmZ2WkoHEOEZ-2" target="MQsE-abeUmZ2WkoHEOEZ-9">
          <mxGeometry relative="1" as="geometry" />
        </mxCell>
        <mxCell id="MQsE-abeUmZ2WkoHEOEZ-14" style="edgeStyle=orthogonalEdgeStyle;rounded=0;orthogonalLoop=1;jettySize=auto;html=1;entryX=1;entryY=0.5;entryDx=0;entryDy=0;" edge="1" parent="WIyWlLk6GJQsqaUBKTNV-1" source="MQsE-abeUmZ2WkoHEOEZ-2" target="MQsE-abeUmZ2WkoHEOEZ-10">
          <mxGeometry relative="1" as="geometry" />
        </mxCell>
        <mxCell id="MQsE-abeUmZ2WkoHEOEZ-2" value="list User" style="shape=umlActor;verticalLabelPosition=bottom;verticalAlign=top;html=1;" vertex="1" parent="WIyWlLk6GJQsqaUBKTNV-1">
          <mxGeometry x="500" y="225" width="30" height="60" as="geometry" />
        </mxCell>
        <mxCell id="MQsE-abeUmZ2WkoHEOEZ-8" value="Manage Categories" style="ellipse;whiteSpace=wrap;html=1;" vertex="1" parent="WIyWlLk6GJQsqaUBKTNV-1">
          <mxGeometry x="230" y="165" width="140" height="70" as="geometry" />
        </mxCell>
        <mxCell id="MQsE-abeUmZ2WkoHEOEZ-9" value="Manage todo Ietms" style="ellipse;whiteSpace=wrap;html=1;" vertex="1" parent="WIyWlLk6GJQsqaUBKTNV-1">
          <mxGeometry x="110" y="220" width="140" height="70" as="geometry" />
        </mxCell>
        <mxCell id="MQsE-abeUmZ2WkoHEOEZ-10" value="Update Profile" style="ellipse;whiteSpace=wrap;html=1;" vertex="1" parent="WIyWlLk6GJQsqaUBKTNV-1">
          <mxGeometry x="230" y="280" width="140" height="70" as="geometry" />
        </mxCell>
        <mxCell id="MQsE-abeUmZ2WkoHEOEZ-17" value="ToDo List App" style="text;html=1;strokeColor=none;fillColor=none;align=center;verticalAlign=middle;whiteSpace=wrap;rounded=0;" vertex="1" parent="WIyWlLk6GJQsqaUBKTNV-1">
          <mxGeometry x="90" y="70" width="100" height="20" as="geometry" />
        </mxCell>
      </root>
    </mxGraphModel>
  </diagram>
</mxfile>
